<?xml version="1.0" encoding="iso-8859-1"?>
<!-- Generator: Adobe Illustrator 19.0.0, SVG Export Plug-In . SVG Version: 6.00 Build 0)  -->
<svg version="1.1" id="Capa_1" fill="#3E78F5" xmlns="http://www.w3.org/2000/svg" xmlns:xlink="http://www.w3.org/1999/xlink" x="0px" y="0px"
	 viewBox="0 0 512 512" style="enable-background:new 0 0 512 512;" xml:space="preserve">
<g>
	<g>
		<path d="M336.948,421.999c4.761-5.312,7.664-12.322,7.664-20c0-16.542-13.458-30-30-30h-19.278c-5.522,0-10,4.478-10,10
			s4.478,10,10,10h19.278c5.514,0,10,4.486,10,10c0,5.514-4.486,10-10,10H197.23c-5.514,0-10-4.486-10-10c0-5.514,4.486-10,10-10
			h18.455c5.522,0,10-4.478,10-10s-4.478-10-10-10H197.23c-16.542,0-30,13.458-30,30c0,7.678,2.902,14.688,7.664,20
			c-4.761,5.312-7.664,12.322-7.664,20c0,7.678,2.902,14.688,7.664,20c-4.761,5.312-7.664,12.322-7.664,20c0,16.542,13.458,30,30,30
			h117.382c16.542,0,30-13.458,30-30c0-7.678-2.902-14.688-7.664-20c4.761-5.312,7.664-12.322,7.664-20
			C344.612,434.322,341.71,427.312,336.948,421.999z M314.612,492H197.23c-5.514,0-10-4.486-10-10s4.486-10,10-10h117.382
			c5.514,0,10,4.486,10,10S320.126,492,314.612,492z M314.612,452H197.23c-5.514,0-10-4.486-10-10s4.486-10,10-10h117.382
			c5.514,0,10,4.486,10,10S320.126,452,314.612,452z"/>
	</g>
</g>
<g>
	<g>
		<path d="M262.991,374.929c-1.86-1.86-4.44-2.93-7.07-2.93c-2.63,0-5.21,1.069-7.07,2.93c-1.859,1.86-2.93,4.44-2.93,7.07
			c0,2.63,1.07,5.21,2.93,7.069c1.86,1.86,4.44,2.931,7.07,2.931c2.63,0,5.209-1.07,7.07-2.931c1.859-1.859,2.93-4.439,2.93-7.069
			C265.921,379.369,264.851,376.789,262.991,374.929z"/>
	</g>
</g>
<g>
	<g>
		<path d="M375.598,50.157l-0.678-0.686c-3.888-3.925-10.221-3.952-14.142-0.063c-3.923,3.888-3.951,10.219-0.063,14.142
			l0.613,0.621c1.958,1.994,4.546,2.993,7.136,2.993c2.528,0,5.06-0.953,7.006-2.865C379.41,60.429,379.467,54.098,375.598,50.157z"
			/>
	</g>
</g>
<g>
	<g>
		<path d="M404.058,88.795c-2.609-4.865-8.671-6.693-13.539-4.086c-4.867,2.61-6.697,8.672-4.088,13.539
			C397.925,119.683,404,143.969,404,168.48c0,33.275-11.438,65.741-31.96,92.171c-10.074-13.122-24.75-22.275-41.323-25.338
			l-28.138-5.202c-6.515-1.204-11.242-6.886-11.242-13.511v-0.245c21.945-12.386,36.805-35.913,36.805-62.859v-26.394v-12.212
			v-2.748c0-39.779-32.363-72.143-72.143-72.143s-72.143,32.363-72.143,72.143v2.748v12.212v26.395
			c0,26.939,14.853,50.461,36.789,62.85v0.254c0,6.625-4.728,12.307-11.242,13.512l-28.123,5.2
			c-16.572,3.064-31.248,12.217-41.322,25.339c-20.522-26.429-31.959-58.895-31.959-92.171c0-81.872,66.393-148.48,148.001-148.48
			c25.404,0,50.459,6.563,72.456,18.979c4.812,2.712,10.91,1.018,13.624-3.794c2.714-4.81,1.016-10.909-3.794-13.624
			C313.296,7.456,284.842,0,256,0C163.364,0,88,75.579,88,168.48c0,47.386,20.393,93.291,55.949,125.945
			c17.002,15.615,26.602,37.694,26.336,60.578c-0.064,5.522,4.36,10.052,9.883,10.115c0.04,0.001,0.079,0.001,0.118,0.001
			c5.469,0,9.934-4.401,9.997-9.884c0.332-28.556-11.625-56.089-32.807-75.541c-1.318-1.21-2.603-2.448-3.873-3.698
			c7.056-10.93,18.356-18.623,31.314-21.019l28.123-5.2c7.398-1.368,13.854-5.091,18.662-10.304l12.652,12.652l-18.217,69.26
			c-0.847,3.219-0.037,6.646,2.16,9.146l20.318,23.114c1.898,2.16,4.636,3.397,7.512,3.397c2.876,0,5.612-1.239,7.511-3.399
			l20.311-23.114c2.196-2.499,3.006-5.928,2.159-9.146l-18.223-69.254l12.523-12.523c4.794,5.142,11.201,8.814,18.536,10.169
			l28.138,5.202c12.957,2.396,24.258,10.088,31.314,21.018c-1.27,1.25-2.555,2.488-3.873,3.698
			c-21.182,19.452-33.139,46.985-32.807,75.542l19.998-0.233c-0.266-22.883,9.334-44.963,26.336-60.578
			C403.608,261.77,424,215.864,424,168.479C424,140.681,417.104,113.126,404.058,88.795z M256,59.997
			c27.896,0,50.747,22.021,52.081,49.593l-26.444-15.536c-4.21-2.475-9.594-1.545-12.73,2.199
			c-11.101,13.248-27.38,20.847-44.665,20.847h-20.384v-2.212v-2.748h-0.001C203.857,83.388,227.248,59.997,256,59.997z
			 M256.127,331.896l-9.292-10.57l9.287-35.31l9.291,35.312L256.127,331.896z M256.124,235.608l-10.761-10.761
			c3.473,0.516,7.024,0.79,10.638,0.79c3.711,0,7.357-0.283,10.919-0.826L256.124,235.608z M256,205.639
			c-28.752,0-52.142-23.392-52.142-52.144v-16.394h20.384c20.347,0,39.656-7.838,54.155-21.753l29.746,17.476v20.672
			C308.143,182.248,284.752,205.639,256
			,205.639z"/>
	</g>
</g>
<g>
	<g>
		<path d="M236.739,144.438c-1.86-1.87-4.44-2.93-7.07-2.93c-2.63,0-5.21,1.06-7.07,2.93c-1.859,1.86-2.93,4.44-2.93,7.07
			c0,2.63,1.07,5.2,2.93,7.07c1.86,1.859,4.44,2.93,7.07,2.93c2.63,0,5.21-1.07,7.07-2.93c1.86-1.86,2.93-4.44,2.93-7.07
			C239.669,148.868,238.599,146.298,236.739,144.438z"/>
	</g>
</g>
<g>
	<g>
		<path d="M289.65,144.438c-1.869-1.87-4.449-2.93-7.08-2.93c-2.63,0-5.199,1.06-7.069,2.93c-1.86,1.86-2.931,4.431-2.931,7.07
			c0,2.63,1.07,5.21,2.931,7.07c1.859,1.86,4.439,2.93,7.069,2.93c2.641,0,5.211-1.07,7.08-2.93c1.86-1.87,2.92-4.44,2.92-7.07
			C292.57,148.878,291.51,146.298,289.65,144.438z"/>
	</g>
</g>
<g>
	<g>
		<path d="M272.909,171.065c-3.906-3.904-10.236-3.904-14.143,0c-1.525,1.525-4.006,1.525-5.531,0
			c-3.906-3.904-10.236-3.904-14.143,0c-3.905,3.905-3.905,10.237,0,14.143c4.662,4.661,10.785,6.992,16.908,6.992
			s12.247-2.331,16.909-6.992C276.814,181.303,276.814,174.971,272.909,171.065z"/>
	</g>
</g>
<g>
	<g>
		<path d="M478.443,168.253H463.48c-5.522,0-10,4.478-10,10s4.478,10,10,10h14.963c5.522,0,10-4.478,10-10
			S483.965,168.253,478.443,168.253z"/>
	</g>
</g>
<g>
	<g>
		<path d="M466.297,116.785c-3.907-3.905-10.24-3.901-14.142,0.007l-10.48,10.49c-3.903,3.906-3.9,10.238,0.007,14.142
			c1.952,1.951,4.51,2.926,7.068,2.926c2.561,0,5.122-0.978,7.074-2.933l10.48-10.49
			C470.207,127.021,470.204,120.689,466.297,116.785z"/>
	</g>
</g>
<g>
	<g>
		<path d="M466.04,225.339l-10.419-10.409c-3.906-3.903-10.238-3.9-14.143,0.008c-3.902,3.907-3.899,10.239,0.008,14.142
			l10.42,10.41c1.952,1.95,4.51,2.925,7.067,2.925c2.561,0,5.122-0.978,7.075-2.933C469.95,235.575,469.947,229.243,466.04,225.339z
			"/>
	</g>
</g>
<g>
	<g>
		<path d="M48.52,168.021H33.557c-5.522,0-10,4.478-10,10s4.478,10,10,10H48.52c5.522,0,10-4.478,10-10
			S54.042,168.021,48.52,168.021z"/>
	</g>
</g>
<g>
	<g>
		<path d="M70.317,214.849c-3.905-3.905-10.238-3.901-14.141,0.007l-10.48,10.49c-3.903,3.906-3.9,10.238,0.007,14.142
			c1.952,1.951,4.51,2.926,7.067,2.926c2.561,0,5.122-0.978,7.074-2.933l10.48-10.49C74.227,225.085,74.224,218.753,70.317,214.849z
			"/>
	</g>
</g>
<g>
	<g>
		<path d="M70.513,127.194l-10.419-10.41c-3.907-3.903-10.239-3.9-14.143,0.008c-3.902,3.907-3.899,10.239,0.008,14.143
			l10.42,10.409c1.952,1.95,4.51,2.925,7.067,2.925c2.561,0,5.122-0.978,7.075-2.933C74.423,137.429,74.42,131.097,70.513,127.194z"
			/>
	</g>
</g>
<g>
</g>
<g>
</g>
<g>
</g>
<g>
</g>
<g>
</g>
<g>
</g>
<g>
</g>
<g>
</g>
<g>
</g>
<g>
</g>
<g>
</g>
<g>
</g>
<g>
</g>
<g>
</g>
<g>
</g>
</svg>
